# The spinning EMPIRE logo.
# Source: apps/zig/scenes/empire.zig (vertices, segments).
# Original: The Empire intro by The Fallen Angels, code by Stef (Atari ST).
# Vertices are f32-exact: they parse back to the original table's bits.
o empire_logo
v 0 0 0
v 1 0 0
v 1 -0.5 0
v 0 -0.5 0
v 0 -1 0
v 1 -1 0
v 1.2 -1 0
v 1.2 0 0
v 1.7 0 0
v 1.7 -1 0
v 2 0 0
v 2.2 -0.2 0
v 2.2 -1 0
v 2.4 -1 0
v 2.4 0 0
v 3.2 0 0
v 3.4 -0.2 0
v 3.4 -0.5 0
v 2.4 -0.5 0
v 3.6 0 0
v 3.6 -1 0
v 3.8 -1 0
v 3.8 0 0
v 4.6 0 0
v 4.8 -0.2 0
v 4.8 -0.5 0
v 3.8 -0.5 0
v 4.4 -0.5 0
v 4.8 -1 0
v 5 0 0
v 6 0 0
v 6 -0.5 0
v 5 -0.5 0
v 5 -1 0
v 6 -1 0
l 1 2
l 3 4 5 6
l 7 8 9 10
l 9 11 12 13
l 14 15 16 17 18 19
l 20 21
l 22 23 24 25 26 27 28 29
l 30 31
l 32 33 34 35
