# The yellow letters of the MAXI logo.
# Source: apps/zig/scenes/maxi.zig (vertices_yellow, segments_yellow).
# Original: MAXI's 3D line boot, The Replicants & ST Amigos crack (Atari ST).
# Vertices are f32-exact: they parse back to the original table's bits.
o maxi_yellow
v 0 0.58 -0.1
v 0 0 -0.1
v 0.4 0 -0.3
v 0.4 0.3 -0.3
v 0.09 0.3 -0.13
v 0.2 0.3 -0.19
v 0.4 0.58 -0.3
v 0.45 0.58 -0.1
v 0.45 0 -0.1
v 0.85 0 -0.3
v 0.85 0.3 -0.3
v 0.54 0.3 -0.13
v 0.84 0 -0.1
v 1.07 0 -0.2
v 0.97 0 -0.155
v 0.97 0.58 -0.155
v 0.84 0.58 -0.1
v 1.07 0.58 -0.2
v 1.23 0.58 -0.1
v 1.43 0 -0.15
v 1.63 0.58 -0.3
v 1.33 0.3 -0.125
v 1.53 0.3 -0.225
v 1.81 0 -0.1
v 2.14 0 -0.3
v 1.98 0 -0.205
v 1.98 0.58 -0.205
l 1 2 3 4 5
l 6 7
l 8 9 10 11 12
l 13 14
l 15 16
l 17 18
l 19 20 21
l 22 23
l 24 25
l 26 27
