# The red letters of the MAXI logo.
# Source: apps/zig/scenes/maxi.zig (vertices_red, segments_red).
# Original: MAXI's 3D line boot, The Replicants & ST Amigos crack (Atari ST).
# Vertices are f32-exact: they parse back to the original table's bits.
o maxi_red
v 0.6 0.58 -0.3
v 0.2 0.58 -0.1
v 0.2 0 -0.1
v 0.6 0 -0.3
v 0.2 0.3 -0.1
v 0.5 0.3 -0.25
v 1.05 0.58 -0.3
v 0.65 0.58 -0.1
v 0.65 0 -0.1
v 1.48 0.58 -0.3
v 1.1 0.58 -0.1
v 1.1 0 -0.1
v 1.48 0 -0.3
v 1.53 0.58 -0.1
v 1.53 0 -0.1
v 1.93 0.58 -0.3
v 1.93 0 -0.3
v 1.98 0.58 -0.1
v 2.38 0.58 -0.3
v 2.38 0.3 -0.3
v 1.98 0.3 -0.1
v 1.98 0 -0.1
v 2.38 0 -0.3
l 1 2 3 4
l 5 6
l 7 8 9
l 10 11 12 13
l 14 15 16 17
l 18 19 20 21 22 23
